<svg preserveAspectRatio="none" width="100%" height="100%" overflow="visible" style="display: block;" viewBox="0 0 20 20" fill="none" xmlns="http://www.w3.org/2000/svg">
<g id="global">
<path id="Vector" d="M10 18.3333C14.6024 18.3333 18.3333 14.6024 18.3333 10C18.3333 5.39763 14.6024 1.66667 10 1.66667C5.39763 1.66667 1.66667 5.39763 1.66667 10C1.66667 14.6024 5.39763 18.3333 10 18.3333Z" stroke="var(--stroke-0, #CED2E6)" stroke-width="1.5" stroke-linecap="round" stroke-linejoin="round"/>
<path id="Vector_2" d="M6.66667 2.5H7.5C5.875 7.36667 5.875 12.6333 7.5 17.5H6.66667" stroke="var(--stroke-0, #CED2E6)" stroke-width="1.5" stroke-linecap="round" stroke-linejoin="round"/>
<path id="Vector_3" d="M12.5 2.5C14.125 7.36667 14.125 12.6333 12.5 17.5" stroke="var(--stroke-0, #CED2E6)" stroke-width="1.5" stroke-linecap="round" stroke-linejoin="round"/>
<path id="Vector_4" d="M2.5 13.3333V12.5C7.36667 14.125 12.6333 14.125 17.5 12.5V13.3333" stroke="var(--stroke-0, #CED2E6)" stroke-width="1.5" stroke-linecap="round" stroke-linejoin="round"/>
<path id="Vector_5" d="M2.5 7.5C7.36667 5.875 12.6333 5.875 17.5 7.5" stroke="var(--stroke-0, #CED2E6)" stroke-width="1.5" stroke-linecap="round" stroke-linejoin="round"/>
<g id="Vector_6" opacity="0">
</g>
</g>
</svg>
