<svg preserveAspectRatio="none" width="100%" height="100%" overflow="visible" style="display: block;" viewBox="0 0 20 20" fill="none" xmlns="http://www.w3.org/2000/svg">
<g id="star 6">
<path id="Vector" d="M18.3357 8.05998C18.2831 7.90755 18.1874 7.77367 18.0602 7.67456C17.9329 7.57546 17.7797 7.51539 17.619 7.50165L12.8774 6.80998L10.7524 2.50165C10.6841 2.36075 10.5776 2.24193 10.445 2.15879C10.3123 2.07565 10.1589 2.03155 10.0024 2.03155C9.84583 2.03155 9.69245 2.07565 9.55981 2.15879C9.42716 2.24193 9.32062 2.36075 9.25238 2.50165L7.12738 6.80165L2.38571 7.50165C2.23148 7.52357 2.08648 7.58828 1.96717 7.68844C1.84786 7.78861 1.75901 7.92021 1.71071 8.06831C1.6665 8.21304 1.66253 8.36708 1.69924 8.51389C1.73594 8.6607 1.81193 8.79475 1.91905 8.90165L5.36071 12.235L4.52738 16.9683C4.49763 17.1245 4.51321 17.286 4.57227 17.4337C4.63134 17.5814 4.73143 17.709 4.86071 17.8016C4.98673 17.8917 5.13536 17.9449 5.28992 17.9552C5.44448 17.9655 5.59886 17.9325 5.73571 17.86L10.0024 15.635L14.2524 17.8683C14.3693 17.9343 14.5014 17.9688 14.6357 17.9683C14.8122 17.9689 14.9844 17.9135 15.1274 17.81C15.2567 17.7174 15.3568 17.5897 15.4158 17.442C15.4749 17.2944 15.4905 17.1329 15.4607 16.9766L14.6274 12.2433L18.069 8.90998C18.1894 8.80804 18.2783 8.67406 18.3255 8.5236C18.3727 8.37314 18.3762 8.21237 18.3357 8.05998ZM13.2107 11.3933C13.113 11.4878 13.0399 11.6048 12.9977 11.7341C12.9556 11.8634 12.9458 12.001 12.969 12.135L13.569 15.6266L10.4357 13.96C10.3151 13.8958 10.1806 13.8622 10.044 13.8622C9.90745 13.8622 9.77295 13.8958 9.65238 13.96L6.51905 15.6266L7.11905 12.135C7.14233 12.001 7.13248 11.8634 7.09035 11.7341C7.04823 11.6048 6.97511 11.4878 6.87738 11.3933L4.37738 8.89331L7.88571 8.38498C8.02071 8.3662 8.14905 8.3146 8.25946 8.23469C8.36988 8.15478 8.45901 8.04901 8.51905 7.92665L10.0024 4.75165L11.569 7.93498C11.6291 8.05734 11.7182 8.16311 11.8286 8.24302C11.9391 8.32293 12.0674 8.37453 12.2024 8.39331L15.7107 8.90165L13.2107 11.3933Z" fill="var(--fill-0, white)"/>
</g>
</svg>
