<svg preserveAspectRatio="none" width="100%" height="100%" overflow="visible" style="display: block;" viewBox="0 0 11.0272 11.0272" fill="none" xmlns="http://www.w3.org/2000/svg">
<path id="Star 23" opacity="0.46" d="M3.40264 1.72314C3.87223 -0.57438 7.15496 -0.57438 7.62456 1.72314V1.72314C7.79742 2.56886 8.45834 3.22978 9.30405 3.40264V3.40264C11.6016 3.87223 11.6016 7.15496 9.30405 7.62456V7.62456C8.45834 7.79742 7.79742 8.45834 7.62456 9.30405V9.30405C7.15496 11.6016 3.87223 11.6016 3.40264 9.30405V9.30405C3.22978 8.45834 2.56886 7.79742 1.72314 7.62456V7.62456C-0.57438 7.15496 -0.57438 3.87223 1.72314 3.40264V3.40264C2.56886 3.22978 3.22978 2.56886 3.40264 1.72314V1.72314Z" fill="var(--fill-0, #F5B230)"/>
</svg>
