<svg preserveAspectRatio="none" width="100%" height="100%" overflow="visible" style="display: block;" viewBox="0 0 6.77863 6.77863" fill="none" xmlns="http://www.w3.org/2000/svg">
<g id="Container" clip-path="url(#clip0_9_2416)">
<path id="Shape" d="M1.1294 1.6245C1.12939 1.19553 1.47714 0.847768 1.90612 0.847768H3.74205C4.17102 0.847768 4.51877 1.19552 4.51877 1.62449V1.77728L5.08097 1.34736C5.31329 1.16971 5.64849 1.33536 5.64849 1.62781V3.45703C5.64849 3.74949 5.31329 3.91513 5.08097 3.73748L4.51877 3.30756V3.46036C4.51877 3.88933 4.17102 4.23708 3.74205 4.23708H1.90616C1.47719 4.23708 1.12945 3.88934 1.12944 3.46038L1.1294 1.6245ZM1.90612 1.27143C1.71113 1.27143 1.55306 1.4295 1.55306 1.62449L1.5531 3.46037C1.55311 3.65535 1.71117 3.81342 1.90616 3.81342H3.74205C3.93704 3.81342 4.09511 3.65535 4.09511 3.46036V1.62449C4.09511 1.4295 3.93704 1.27143 3.74205 1.27143H1.90612ZM4.51877 2.77422L5.22482 3.31414V1.7707L4.51877 2.31062V2.77422ZM5.18626 4.55844C4.91776 4.49312 4.58454 4.44185 4.20952 4.41098C4.3839 4.32504 4.53121 4.19253 4.63522 4.02968C4.87468 4.06047 5.09401 4.09998 5.28639 4.14677C5.53148 4.20639 5.74473 4.28062 5.90183 4.37097C6.04305 4.45219 6.21337 4.59023 6.21337 4.80197C6.21337 4.93461 6.14413 5.03891 6.06735 5.11231C5.99077 5.1855 5.88984 5.24518 5.78002 5.29496C5.55916 5.39507 5.25647 5.47545 4.90673 5.53419C4.79135 5.55357 4.68211 5.47574 4.66273 5.36037C4.64335 5.24499 4.72118 5.13575 4.83655 5.11638C5.1694 5.06047 5.43167 4.98771 5.6051 4.90909C5.69243 4.8695 5.74599 4.83341 5.77461 4.80605L5.77704 4.80368L5.77886 4.80187C5.7658 4.7884 5.74008 4.76668 5.69062 4.73824C5.58331 4.67652 5.41396 4.61382 5.18626 4.55844ZM5.79233 4.78571C5.79271 4.78506 5.79282 4.78473 5.79282 4.78473L5.79233 4.78571ZM0.876051 4.37097C0.962976 4.32098 1.06709 4.27593 1.18427 4.23555C1.34823 4.38827 1.5607 4.4896 1.79602 4.51388C1.72437 4.52786 1.65613 4.54274 1.59162 4.55844C1.36393 4.61382 1.19457 4.67652 1.08726 4.73824C1.03767 4.76675 1.01195 4.78851 0.99892 4.80197C1.01195 4.81543 1.03767 4.83718 1.08726 4.8657C1.19457 4.92741 1.36393 4.99012 1.59162 5.0455C2.04017 5.15461 2.66934 5.22453 3.37232 5.22562L3.16926 5.02226C3.08659 4.93947 3.08669 4.80535 3.16948 4.72268C3.25227 4.64002 3.38639 4.64011 3.46905 4.7229L4.03311 5.28779C4.11573 5.37053 4.11569 5.50457 4.033 5.58725L3.46894 6.15131C3.38622 6.23404 3.25209 6.23404 3.16937 6.15131C3.08664 6.06858 3.08664 5.93446 3.16937 5.85173L3.37182 5.64928C2.64529 5.64817 1.98114 5.57627 1.49149 5.45716C1.2464 5.39755 1.03315 5.32331 0.876051 5.23296C0.734827 5.15175 0.564513 5.01371 0.564513 4.80197C0.564513 4.59023 0.734827 4.45219 0.876051 4.37097Z" fill="var(--fill-0, white)"/>
</g>
<defs>
<clipPath id="clip0_9_2416">
<rect width="6.77863" height="6.77863" fill="white"/>
</clipPath>
</defs>
</svg>
