<svg preserveAspectRatio="none" width="100%" height="100%" overflow="visible" style="display: block;" viewBox="0 0 26.9734 17.4241" fill="none" xmlns="http://www.w3.org/2000/svg">
<g id="Group">
<path id="Vector" d="M17.1331 1.86342H9.8399V15.5607H17.1331V1.86342Z" fill="var(--fill-0, #FF6E1A)"/>
<path id="Vector_2" d="M10.3031 8.71204C10.3031 5.92903 11.5533 3.46062 13.475 1.86341C12.0627 0.701803 10.2799 0 8.33508 0C3.72763 0 1.72582e-06 3.89622 1.72582e-06 8.71204C1.72582e-06 13.5279 3.72763 17.4241 8.33508 17.4241C10.2799 17.4241 12.0627 16.7223 13.475 15.5607C11.5533 13.9877 10.3031 11.4951 10.3031 8.71204Z" fill="var(--fill-0, #FF0623)"/>
<path id="Vector_3" d="M26.9734 8.71205C26.9734 13.5279 23.2458 17.4241 18.6383 17.4241C16.6935 17.4241 14.9107 16.7223 13.4984 15.5607C15.4432 13.9635 16.6703 11.4951 16.6703 8.71205C16.6703 5.92903 15.4201 3.46062 13.4984 1.86341C14.9107 0.701808 16.6935 4.21496e-06 18.6383 4.21496e-06C23.2458 4.21496e-06 26.9734 3.92042 26.9734 8.71205Z" fill="var(--fill-0, #F8CF67)"/>
</g>
</svg>
