<svg preserveAspectRatio="none" width="100%" height="100%" overflow="visible" style="display: block;" viewBox="0 0 15 16.6667" fill="none" xmlns="http://www.w3.org/2000/svg">
<path id="Vector" d="M5.83333 5H10.8333C11.0543 5 11.2663 4.9122 11.4226 4.75592C11.5789 4.59964 11.6667 4.38768 11.6667 4.16667C11.6667 3.94565 11.5789 3.73369 11.4226 3.57741C11.2663 3.42113 11.0543 3.33333 10.8333 3.33333H5.83333C5.61232 3.33333 5.40036 3.42113 5.24408 3.57741C5.0878 3.73369 5 3.94565 5 4.16667C5 4.38768 5.0878 4.59964 5.24408 4.75592C5.40036 4.9122 5.61232 5 5.83333 5V5ZM4.16667 8.33333H10.8333C11.0543 8.33333 11.2663 8.24554 11.4226 8.08926C11.5789 7.93298 11.6667 7.72101 11.6667 7.5C11.6667 7.27899 11.5789 7.06703 11.4226 6.91075C11.2663 6.75447 11.0543 6.66667 10.8333 6.66667H4.16667C3.94565 6.66667 3.73369 6.75447 3.57741 6.91075C3.42113 7.06703 3.33333 7.27899 3.33333 7.5C3.33333 7.72101 3.42113 7.93298 3.57741 8.08926C3.73369 8.24554 3.94565 8.33333 4.16667 8.33333ZM4.16667 11.6667H10.8333C11.0543 11.6667 11.2663 11.5789 11.4226 11.4226C11.5789 11.2663 11.6667 11.0543 11.6667 10.8333C11.6667 10.6123 11.5789 10.4004 11.4226 10.2441C11.2663 10.0878 11.0543 10 10.8333 10H4.16667C3.94565 10 3.73369 10.0878 3.57741 10.2441C3.42113 10.4004 3.33333 10.6123 3.33333 10.8333C3.33333 11.0543 3.42113 11.2663 3.57741 11.4226C3.73369 11.5789 3.94565 11.6667 4.16667 11.6667ZM14.1667 0H0.833333C0.61232 0 0.400358 0.0877973 0.244078 0.244078C0.0877973 0.400358 0 0.61232 0 0.833333V15.8333C0 15.9881 0.0430956 16.1398 0.124458 16.2714C0.20582 16.4031 0.322234 16.5095 0.460655 16.5787C0.599077 16.6479 0.754037 16.6772 0.908171 16.6633C1.06231 16.6494 1.20953 16.5929 1.33333 16.5L3.05833 15.2083L4.775 16.5C4.91925 16.6082 5.09469 16.6667 5.275 16.6667C5.45531 16.6667 5.63075 16.6082 5.775 16.5L7.5 15.2083L9.225 16.5C9.36925 16.6082 9.54469 16.6667 9.725 16.6667C9.90531 16.6667 10.0808 16.6082 10.225 16.5L11.9417 15.2083L13.6667 16.5C13.7911 16.5927 13.9389 16.6489 14.0935 16.6621C14.2481 16.6754 14.4033 16.6452 14.5417 16.575C14.6791 16.5058 14.7947 16.3998 14.8756 16.2689C14.9565 16.138 14.9995 15.9872 15 15.8333V0.833333C15 0.61232 14.9122 0.400358 14.7559 0.244078C14.5996 0.0877973 14.3877 0 14.1667 0V0ZM13.3333 14.1667L12.4417 13.5C12.2974 13.3918 12.122 13.3333 11.9417 13.3333C11.7614 13.3333 11.5859 13.3918 11.4417 13.5L9.725 14.7917L8 13.5C7.85575 13.3918 7.68031 13.3333 7.5 13.3333C7.31969 13.3333 7.14425 13.3918 7 13.5L5.275 14.7917L3.55833 13.5C3.41409 13.3918 3.23864 13.3333 3.05833 13.3333C2.87802 13.3333 2.70258 13.3918 2.55833 13.5L1.66667 14.1667V1.66667H13.3333V14.1667Z" fill="var(--fill-0, black)"/>
</svg>
