<svg preserveAspectRatio="none" width="100%" height="100%" overflow="visible" style="display: block;" viewBox="0 0 14.5566 13.0566" fill="none" xmlns="http://www.w3.org/2000/svg">
<path id="Union" d="M5.77832 7.50391C7.31146 7.50404 8.55469 8.7471 8.55469 10.2803C8.55458 11.8134 7.3114 13.0565 5.77832 13.0566C4.42491 13.0566 3.29955 12.0874 3.05371 10.8057H0.525391C0.235566 10.8054 0.000102999 10.5701 0 10.2803C0 9.99033 0.235502 9.7551 0.525391 9.75488H3.05371C3.29941 8.47294 4.42478 7.50391 5.77832 7.50391ZM5.77832 8.55469C4.82522 8.55469 4.05273 9.32717 4.05273 10.2803C4.05284 11.2333 4.82528 12.0059 5.77832 12.0059C6.73125 12.0057 7.5038 11.2332 7.50391 10.2803C7.50391 9.32725 6.73131 8.55482 5.77832 8.55469ZM14.0312 9.75488C14.3213 9.75488 14.5566 9.9902 14.5566 10.2803C14.5565 10.5703 14.3213 10.8057 14.0312 10.8057H10.2793C9.98962 10.8053 9.75499 10.57 9.75488 10.2803C9.75488 9.99044 9.98956 9.75528 10.2793 9.75488H14.0312ZM8.7793 0C10.1326 0 11.258 0.96933 11.5039 2.25098H14.0312C14.3212 2.25098 14.5564 2.4865 14.5566 2.77637C14.5566 3.06644 14.3213 3.30176 14.0312 3.30176H11.5039C11.2583 4.58385 10.1329 5.55273 8.7793 5.55273C7.24608 5.55269 6.00293 4.3096 6.00293 2.77637C6.00318 1.24335 7.24623 4.40606e-05 8.7793 0ZM8.7793 1.05078C7.82638 1.05083 7.05396 1.8235 7.05371 2.77637C7.05371 3.72944 7.82623 4.50191 8.7793 4.50195C9.7324 4.50195 10.5049 3.72947 10.5049 2.77637C10.5046 1.82347 9.73225 1.05078 8.7793 1.05078ZM4.27734 2.25098C4.56712 2.25115 4.80248 2.48661 4.80273 2.77637C4.80273 3.06633 4.56727 3.30158 4.27734 3.30176H0.525391C0.235502 3.30154 0 3.06631 0 2.77637C0.000248907 2.48664 0.235656 2.2512 0.525391 2.25098H4.27734Z" fill="var(--fill-0, white)"/>
</svg>
