<svg preserveAspectRatio="none" width="100%" height="100%" overflow="visible" style="display: block;" viewBox="0 0 12 12" fill="none" xmlns="http://www.w3.org/2000/svg">
<g id="arrows-h-alt 1">
<path id="Vector" d="M9.92 5.12409C9.87241 5.00134 9.80104 4.88919 9.71 4.79409L7.21 2.29409C7.0217 2.10579 6.7663 2 6.5 2C6.2337 2 5.9783 2.10579 5.79 2.29409C5.6017 2.48239 5.49591 2.73779 5.49591 3.00409C5.49591 3.27039 5.6017 3.52579 5.79 3.71409L6.59 4.50409H2C1.73478 4.50409 1.48043 4.60945 1.29289 4.79698C1.10536 4.98452 1 5.23887 1 5.50409C1 5.76931 1.10536 6.02366 1.29289 6.2112C1.48043 6.39873 1.73478 6.50409 2 6.50409H6.59L5.79 7.29409C5.69627 7.38705 5.62188 7.49766 5.57111 7.61951C5.52034 7.74137 5.4942 7.87208 5.4942 8.00409C5.4942 8.1361 5.52034 8.26681 5.57111 8.38867C5.62188 8.51053 5.69627 8.62113 5.79 8.71409C5.88296 8.80782 5.99356 8.88221 6.11542 8.93298C6.23728 8.98375 6.36799 9.00989 6.5 9.00989C6.63201 9.00989 6.76272 8.98375 6.88458 8.93298C7.00644 8.88221 7.11704 8.80782 7.21 8.71409L9.71 6.21409C9.80104 6.11899 9.87241 6.00684 9.92 5.88409C10.02 5.64063 10.02 5.36755 9.92 5.12409Z" fill="var(--fill-0, #D63415)"/>
</g>
</svg>
