<svg preserveAspectRatio="none" width="100%" height="100%" overflow="visible" style="display: block;" viewBox="0 0 20.4925 23.9149" fill="none" xmlns="http://www.w3.org/2000/svg">
<g id="Group">
<path id="VectorP" d="M17.4482 1.80328C16.3285 0.541116 14.3044 0 11.7151 0H4.20009C3.67032 0 3.22016 0.38103 3.13721 0.89767L0.00812872 20.524C-0.0540784 20.911 0.248931 21.2616 0.645585 21.2616H5.28503L6.45025 13.9526L6.41412 14.1815C6.49707 13.6648 6.94389 13.2838 7.47298 13.2838H9.67766C14.0087 13.2838 17.4 11.544 18.3907 6.51125C18.4201 6.36241 18.4455 6.21754 18.4676 6.07598C18.3425 6.01049 18.3425 6.01049 18.4676 6.07598C18.7626 4.21581 18.4656 2.94968 17.4482 1.80328Z" fill="var(--fill-0, #2E3E7D)"/>
<path id="VectorY" d="M8.22549 5.40587C8.34923 5.34766 8.48702 5.31524 8.63151 5.31524H14.5231C15.2208 5.31524 15.8716 5.36022 16.4663 5.45482C16.6368 5.48194 16.802 5.51303 16.9626 5.54876C17.1231 5.58382 17.279 5.62351 17.4301 5.66717C17.5057 5.689 17.58 5.71149 17.6529 5.7353C17.9452 5.83188 18.2174 5.94434 18.4676 6.07598C18.7626 4.21515 18.4656 2.94968 17.4482 1.80328C16.3278 0.541116 14.3044 0 11.7151 0H4.19941C3.67032 0 3.22015 0.38103 3.13721 0.897671L0.00812351 20.5234C-0.0540836 20.911 0.248925 21.261 0.644911 21.261H5.28503L7.70241 6.10046C7.75191 5.78955 7.95392 5.53486 8.22549 5.40587Z" fill="var(--fill-0, #2E3E7D)"/>
<path id="VectorA" d="M18.3905 6.51117C17.3998 11.5433 14.0085 13.2837 9.67746 13.2837H7.47212C6.94302 13.2837 6.4962 13.6647 6.41393 14.1814L4.96443 23.2692C4.91025 23.6079 5.17513 23.9149 5.52162 23.9149H9.43264C9.89552 23.9149 10.2895 23.5815 10.3617 23.1296L10.3999 22.9325L11.137 18.3125L11.1845 18.0572C11.2567 17.6054 11.6507 17.272 12.1136 17.272H12.6989C16.4875 17.272 19.454 15.7498 20.3209 11.3475C20.6828 9.50781 20.4955 7.97178 19.5383 6.89286C19.248 6.56607 18.8875 6.29618 18.4674 6.07589C18.4447 6.21812 18.4199 6.36233 18.3905 6.51117Z" fill="var(--fill-0, #2E9ED5)"/>
<path id="VectorP_2" d="M17.4307 5.66714C17.2795 5.62348 17.1237 5.58379 16.9631 5.54873C16.8026 5.51367 16.6367 5.48258 16.4668 5.45546C15.8715 5.3602 15.2213 5.31522 14.523 5.31522H8.63207C8.48692 5.31522 8.34913 5.34763 8.22606 5.40651C7.95382 5.5355 7.75248 5.78952 7.70298 6.1011L6.45081 13.9526L6.41469 14.1815C6.49696 13.6648 6.94379 13.2838 7.47288 13.2838H9.67822C14.0093 13.2838 17.4006 11.544 18.3912 6.51123C18.4207 6.36239 18.4454 6.21818 18.4682 6.07596C18.2173 5.94498 17.9458 5.83186 17.6534 5.73594C17.5805 5.71213 17.5063 5.68897 17.4307 5.66714Z" fill="var(--fill-0, white)"/>
</g>
</svg>
