<svg preserveAspectRatio="none" width="100%" height="100%" overflow="visible" style="display: block;" viewBox="0 0 10.6667 14.0036" fill="none" xmlns="http://www.w3.org/2000/svg">
<g id="Location">
<path id="Vector" fill-rule="evenodd" clip-rule="evenodd" d="M7.1872 12.467C8.72703 10.5034 10.6667 7.65061 10.6667 5.73913C10.6667 2.5695 8.27885 0 5.33333 0C2.38781 0 0 2.5695 0 5.73913C0 7.65061 1.93963 10.5034 3.47947 12.467C4.28283 13.4914 4.68451 14.0036 5.33333 14.0036C5.98216 14.0036 6.38384 13.4914 7.1872 12.467ZM5.33333 8C4.22876 8 3.33333 7.10457 3.33333 6C3.33333 4.89543 4.22876 4 5.33333 4C6.4379 4 7.33333 4.89543 7.33333 6C7.33333 7.10457 6.4379 8 5.33333 8Z" fill="var(--fill-0, #F5B230)"/>
</g>
</svg>
