<svg preserveAspectRatio="none" width="100%" height="100%" overflow="visible" style="display: block;" viewBox="0 0 158.833 158.833" fill="none" xmlns="http://www.w3.org/2000/svg">
<g id="verify">
<path id="Vector" d="M142.685 71.0776L133.684 60.6211C131.963 58.6357 130.574 54.9296 130.574 52.2824V41.0318C130.574 34.0166 124.816 28.259 117.801 28.259H106.55C103.969 28.259 100.197 26.8692 98.2115 25.1485L87.755 16.148C83.1886 12.2433 75.7102 12.2433 71.0776 16.148L60.6873 25.2147C58.7019 26.8692 54.9296 28.259 52.3486 28.259H40.8994C33.8843 28.259 28.1266 34.0166 28.1266 41.0318V52.3486C28.1266 54.9296 26.7368 58.6357 25.0823 60.6211L16.148 71.1438C12.3095 75.7102 12.3095 83.1224 16.148 87.6888L25.0823 98.2115C26.7368 100.197 28.1266 103.903 28.1266 106.484V117.801C28.1266 124.816 33.8843 130.574 40.8994 130.574H52.3486C54.9296 130.574 58.7019 131.963 60.6873 133.684L71.1438 142.685C75.7102 146.589 83.1886 146.589 87.8212 142.685L98.2777 133.684C100.263 131.963 103.969 130.574 106.616 130.574H117.867C124.882 130.574 130.64 124.816 130.64 117.801V106.55C130.64 103.969 132.03 100.197 133.75 98.2115L142.751 87.755C146.589 83.1886 146.589 75.644 142.685 71.0776ZM106.947 66.9082L74.9822 98.8733C74.0557 99.7998 72.7983 100.329 71.4747 100.329C70.1511 100.329 68.8937 99.7998 67.9671 98.8733L51.9515 82.8577C50.0323 80.9384 50.0323 77.7618 51.9515 75.8426C53.8707 73.9233 57.0474 73.9233 58.9666 75.8426L71.4747 88.3506L99.9322 59.8931C101.851 57.9739 105.028 57.9739 106.947 59.8931C108.867 61.8124 108.867 64.989 106.947 66.9082Z" fill="var(--fill-0, #F5B230)"/>
<g id="Vector_2" opacity="0">
</g>
</g>
</svg>
