<svg preserveAspectRatio="none" width="100%" height="100%" overflow="visible" style="display: block;" viewBox="0 0 20 20" fill="none" xmlns="http://www.w3.org/2000/svg">
<g id="star 5">
<path id="Vector" d="M18.351 8.05998C18.2984 7.90755 18.2026 7.77367 18.0754 7.67456C17.9482 7.57546 17.795 7.51539 17.6343 7.50165L12.8927 6.80998L10.7677 2.50165C10.6994 2.36075 10.5929 2.24193 10.4602 2.15879C10.3276 2.07565 10.1742 2.03155 10.0177 2.03155C9.86112 2.03155 9.70773 2.07565 9.57509 2.15879C9.44244 2.24193 9.3359 2.36075 9.26766 2.50165L7.14266 6.80165L2.401 7.50165C2.24676 7.52357 2.10177 7.58828 1.98245 7.68844C1.86314 7.78861 1.7743 7.92021 1.726 8.06831C1.68178 8.21304 1.67782 8.36708 1.71452 8.51389C1.75122 8.6607 1.82721 8.79475 1.93433 8.90165L5.376 12.235L4.54266 16.9683C4.51291 17.1245 4.52849 17.286 4.58756 17.4337C4.64662 17.5814 4.74671 17.709 4.876 17.8016C5.00201 17.8917 5.15064 17.9449 5.3052 17.9552C5.45976 17.9655 5.61414 17.9325 5.751 17.86L10.0177 15.635L14.2677 17.8683C14.3846 17.9343 14.5167 17.9688 14.651 17.9683C14.8275 17.9689 14.9997 17.9135 15.1427 17.81C15.272 17.7174 15.372 17.5897 15.4311 17.442C15.4902 17.2944 15.5057 17.1329 15.476 16.9766L14.6427 12.2433L18.0843 8.90998C18.2046 8.80804 18.2936 8.67406 18.3408 8.5236C18.388 8.37314 18.3915 8.21237 18.351 8.05998ZM13.226 11.3933C13.1283 11.4878 13.0551 11.6048 13.013 11.7341C12.9709 11.8634 12.9611 12.001 12.9843 12.135L13.5843 15.6266L10.451 13.96C10.3304 13.8958 10.1959 13.8622 10.0593 13.8622C9.92273 13.8622 9.78823 13.8958 9.66766 13.96L6.53433 15.6266L7.13433 12.135C7.15761 12.001 7.14776 11.8634 7.10563 11.7341C7.06351 11.6048 6.99039 11.4878 6.89266 11.3933L4.39266 8.89331L7.901 8.38498C8.036 8.3662 8.16433 8.3146 8.27475 8.23469C8.38516 8.15478 8.47429 8.04901 8.53433 7.92665L10.0177 4.75165L11.5843 7.93498C11.6444 8.05734 11.7335 8.16311 11.8439 8.24302C11.9543 8.32293 12.0827 8.37453 12.2177 8.39331L15.726 8.90165L13.226 11.3933Z" fill="var(--fill-0, white)"/>
</g>
</svg>
