<svg preserveAspectRatio="none" width="100%" height="100%" overflow="visible" style="display: block;" viewBox="0 0 13.5508 13.5508" fill="none" xmlns="http://www.w3.org/2000/svg">
<g id="arrows-h-alt 2">
<path id="Vector" d="M11.2002 5.78644C11.1465 5.64782 11.0659 5.52119 10.9631 5.41379L8.14002 2.59071C7.92738 2.37808 7.63899 2.25862 7.33827 2.25862C7.03755 2.25862 6.74915 2.37808 6.53652 2.59071C6.32388 2.80335 6.20442 3.09175 6.20442 3.39247C6.20442 3.69318 6.32388 3.98158 6.53652 4.19422L7.4399 5.08631H2.25673C1.95724 5.08631 1.67002 5.20529 1.45824 5.41706C1.24647 5.62883 1.1275 5.91605 1.1275 6.21555C1.1275 6.51504 1.24647 6.80226 1.45824 7.01403C1.67002 7.2258 1.95724 7.34478 2.25673 7.34478H7.4399L6.53652 8.23687C6.43068 8.34185 6.34667 8.46674 6.28934 8.60435C6.23201 8.74195 6.20249 8.88955 6.20249 9.03862C6.20249 9.18769 6.23201 9.33529 6.28934 9.4729C6.34667 9.61051 6.43068 9.7354 6.53652 9.84038C6.64149 9.94622 6.76639 10.0302 6.90399 10.0876C7.0416 10.1449 7.1892 10.1744 7.33827 10.1744C7.48734 10.1744 7.63494 10.1449 7.77255 10.0876C7.91015 10.0302 8.03505 9.94622 8.14002 9.84038L10.9631 7.0173C11.0659 6.90991 11.1465 6.78327 11.2002 6.64465C11.3132 6.36973 11.3132 6.06136 11.2002 5.78644Z" fill="var(--fill-0, #ADB5BD)"/>
</g>
</svg>
