<svg preserveAspectRatio="none" width="100%" height="100%" overflow="visible" style="display: block;" viewBox="0 0 13.3348 13.2255" fill="none" xmlns="http://www.w3.org/2000/svg">
<path id="Vector" d="M7.81929 0.955L8.99262 3.30167C9.15262 3.62833 9.57929 3.94167 9.93929 4.00167L12.066 4.355C13.426 4.58167 13.746 5.56833 12.766 6.54167L11.1126 8.195C10.8326 8.475 10.6793 9.015 10.766 9.40167L11.2393 11.4483C11.6126 13.0683 10.7526 13.695 9.31929 12.8483L7.32596 11.6683C6.96596 11.455 6.37262 11.455 6.00596 11.6683L4.01262 12.8483C2.58596 13.695 1.71929 13.0617 2.09262 11.4483L2.56596 9.40167C2.65262 9.015 2.49929 8.475 2.21929 8.195L0.565955 6.54167C-0.407378 5.56833 -0.0940448 4.58167 1.26596 4.355L3.39262 4.00167C3.74596 3.94167 4.17262 3.62833 4.33262 3.30167L5.50596 0.955C6.14596 -0.318333 7.18596 -0.318333 7.81929 0.955Z" fill="var(--fill-0, #FFC227)"/>
</svg>
