<svg preserveAspectRatio="none" width="100%" height="100%" overflow="visible" style="display: block;" viewBox="0 0 20 20" fill="none" xmlns="http://www.w3.org/2000/svg">
<g id="star 3">
<path id="Vector" d="M18.3297 8.05998C18.2771 7.90755 18.1814 7.77367 18.0542 7.67456C17.9269 7.57546 17.7737 7.51539 17.613 7.50165L12.8714 6.80998L10.7464 2.50165C10.6781 2.36075 10.5716 2.24193 10.4389 2.15879C10.3063 2.07565 10.1529 2.03155 9.99638 2.03155C9.83983 2.03155 9.68645 2.07565 9.5538 2.15879C9.42116 2.24193 9.31461 2.36075 9.24638 2.50165L7.12138 6.80165L2.37971 7.50165C2.22548 7.52357 2.08048 7.58828 1.96117 7.68844C1.84186 7.78861 1.75301 7.92021 1.70471 8.06831C1.6605 8.21304 1.65653 8.36708 1.69323 8.51389C1.72994 8.6607 1.80592 8.79475 1.91304 8.90165L5.35471 12.235L4.52138 16.9683C4.49163 17.1245 4.5072 17.286 4.56627 17.4337C4.62533 17.5814 4.72542 17.709 4.85471 17.8016C4.98072 17.8917 5.12935 17.9449 5.28392 17.9552C5.43848 17.9655 5.59285 17.9325 5.72971 17.86L9.99638 15.635L14.2464 17.8683C14.3633 17.9343 14.4954 17.9688 14.6297 17.9683C14.8062 17.9689 14.9784 17.9135 15.1214 17.81C15.2507 17.7174 15.3508 17.5897 15.4098 17.442C15.4689 17.2944 15.4845 17.1329 15.4547 16.9766L14.6214 12.2433L18.063 8.90998C18.1834 8.80804 18.2723 8.67406 18.3195 8.5236C18.3667 8.37314 18.3702 8.21237 18.3297 8.05998ZM13.2047 11.3933C13.107 11.4878 13.0339 11.6048 12.9917 11.7341C12.9496 11.8634 12.9398 12.001 12.963 12.135L13.563 15.6266L10.4297 13.96C10.3091 13.8958 10.1746 13.8622 10.038 13.8622C9.90145 13.8622 9.76694 13.8958 9.64638 13.96L6.51304 15.6266L7.11304 12.135C7.13632 12.001 7.12647 11.8634 7.08435 11.7341C7.04222 11.6048 6.96911 11.4878 6.87138 11.3933L4.37138 8.89331L7.87971 8.38498C8.01471 8.3662 8.14304 8.3146 8.25346 8.23469C8.36388 8.15478 8.45301 8.04901 8.51304 7.92665L9.99638 4.75165L11.563 7.93498C11.6231 8.05734 11.7122 8.16311 11.8226 8.24302C11.933 8.32293 12.0614 8.37453 12.1964 8.39331L15.7047 8.90165L13.2047 11.3933Z" fill="var(--fill-0, white)"/>
</g>
</svg>
