<svg preserveAspectRatio="none" width="100%" height="100%" overflow="visible" style="display: block;" viewBox="0 0 12.375 15.7498" fill="none" xmlns="http://www.w3.org/2000/svg">
<path id="Vector" d="M6.1875 0C4.54704 0.00186098 2.97431 0.654354 1.81433 1.81433C0.654354 2.97431 0.00186098 4.54704 0 6.1875C0 11.482 5.625 15.4807 5.86477 15.648C5.95934 15.7143 6.07202 15.7498 6.1875 15.7498C6.30298 15.7498 6.41566 15.7143 6.51023 15.648C6.75 15.4807 12.375 11.482 12.375 6.1875C12.3731 4.54704 11.7206 2.97431 10.5607 1.81433C9.40069 0.654354 7.82796 0.00186098 6.1875 0ZM6.1875 3.9375C6.63251 3.9375 7.06752 4.06946 7.43753 4.31669C7.80754 4.56393 8.09593 4.91533 8.26623 5.32646C8.43653 5.7376 8.48108 6.19 8.39427 6.62645C8.30745 7.06291 8.09316 7.46382 7.77849 7.77849C7.46382 8.09316 7.06291 8.30745 6.62645 8.39427C6.19 8.48108 5.7376 8.43653 5.32646 8.26623C4.91533 8.09593 4.56393 7.80754 4.31669 7.43753C4.06946 7.06752 3.9375 6.63251 3.9375 6.1875C3.9375 5.59076 4.17455 5.01847 4.59651 4.59651C5.01847 4.17455 5.59076 3.9375 6.1875 3.9375Z" fill="var(--fill-0, #F5B230)"/>
</svg>
