<svg preserveAspectRatio="none" width="100%" height="100%" overflow="visible" style="display: block;" viewBox="0 0 20 20" fill="none" xmlns="http://www.w3.org/2000/svg">
<g id="Group">
<g id="Path">
</g>
<path id="Path_2" d="M7.12737 8.42842C7.99532 9.29636 7.99532 10.7036 7.12737 11.5715C6.25943 12.4394 4.85222 12.4394 3.98428 11.5715C3.11634 10.7036 3.11634 9.29636 3.98428 8.42842C4.85222 7.56047 6.25943 7.56047 7.12737 8.42842" stroke="var(--stroke-0, white)" stroke-width="1.5" stroke-linecap="round" stroke-linejoin="round"/>
<path id="Path_3" d="M16.0157 3.98429C16.8837 4.85223 16.8837 6.25944 16.0157 7.12738C15.1478 7.99532 13.7406 7.99532 12.8727 7.12738C12.0047 6.25944 12.0047 4.85223 12.8727 3.98429C13.7406 3.11635 15.1478 3.11635 16.0157 3.98429" stroke="var(--stroke-0, white)" stroke-width="1.5" stroke-linecap="round" stroke-linejoin="round"/>
<path id="Path_4" d="M16.0157 12.8726C16.8837 13.7405 16.8837 15.1477 16.0157 16.0157C15.1478 16.8836 13.7406 16.8836 12.8727 16.0157C12.0047 15.1477 12.0047 13.7405 12.8727 12.8726C13.7406 12.0046 15.1478 12.0046 16.0157 12.8726" stroke="var(--stroke-0, white)" stroke-width="1.5" stroke-linecap="round" stroke-linejoin="round"/>
<path id="Path_5" d="M7.53333 9.00833L12.4667 6.54167" stroke="var(--stroke-0, white)" stroke-width="1.5" stroke-linecap="round" stroke-linejoin="round"/>
<path id="Path_6" d="M7.53333 10.9917L12.4667 13.4583" stroke="var(--stroke-0, white)" stroke-width="1.5" stroke-linecap="round" stroke-linejoin="round"/>
</g>
</svg>
