<svg preserveAspectRatio="none" width="100%" height="100%" overflow="visible" style="display: block;" viewBox="0 0 20 20" fill="none" xmlns="http://www.w3.org/2000/svg">
<g id="fi_2169874" clip-path="url(#clip0_9_2419)">
<path id="Vector" d="M19.9667 11.3331L18.4486 2.72305C18.2422 1.55324 17.1225 0.769275 15.9529 0.975577L2.93194 3.27157C1.76209 3.47783 0.978162 4.59736 1.18442 5.76717L1.29598 6.3999C0.534106 6.73225 3.35516e-07 7.4924 3.35516e-07 8.37534V16.9031C3.35516e-07 18.091 0.966411 19.0574 2.15428 19.0574H15.08C16.2678 19.0574 17.2343 18.091 17.2343 16.9031V14.0023L18.2192 13.8286C18.7859 13.7287 19.2797 13.4141 19.6098 12.9427C19.9399 12.4714 20.0666 11.8997 19.9667 11.3331ZM18.6473 12.2688C18.4973 12.483 18.2727 12.626 18.0152 12.6714L17.2343 12.8091V12.1394V9.47398V8.3753C17.2343 7.18743 16.2678 6.22102 15.08 6.22102H2.45768L2.34167 5.5631C2.29623 5.30553 2.35389 5.04568 2.5039 4.83139C2.65392 4.61714 2.87843 4.47413 3.13601 4.42869L16.157 2.13274C16.2143 2.12263 16.2712 2.11778 16.3275 2.11778C16.7934 2.11778 17.2077 2.45259 17.2914 2.92704L18.8095 11.537C18.8549 11.7947 18.7973 12.0545 18.6473 12.2688ZM15.08 17.8823H2.15428C1.61434 17.8823 1.17506 17.443 1.17506 16.9031V12.7269H16.0592V16.903C16.0592 17.443 15.6199 17.8823 15.08 17.8823ZM2.15428 7.39612H15.08C15.6199 7.39612 16.0592 7.8354 16.0592 8.37534V8.88649H1.17506V8.37534C1.17506 7.8354 1.61434 7.39612 2.15428 7.39612ZM16.0592 10.0616V11.5519H1.17506V10.0616H16.0592Z" fill="var(--fill-0, white)"/>
<path id="Vector_2" d="M5.65409 15.5228H2.98866C2.66418 15.5228 2.40112 15.7858 2.40112 16.1103C2.40112 16.4348 2.66418 16.6978 2.98866 16.6978H5.65409C5.97856 16.6978 6.24162 16.4348 6.24162 16.1103C6.24162 15.7858 5.97856 15.5228 5.65409 15.5228Z" fill="var(--fill-0, white)"/>
</g>
<defs>
<clipPath id="clip0_9_2419">
<rect width="20" height="20" fill="white"/>
</clipPath>
</defs>
</svg>
