<svg preserveAspectRatio="none" width="100%" height="100%" overflow="visible" style="display: block;" viewBox="0 0 20 20" fill="none" xmlns="http://www.w3.org/2000/svg">
<g id="security-safe">
<path id="Vector" d="M17.425 9.26666C17.425 13.3417 14.4667 17.1583 10.425 18.275C10.15 18.35 9.84999 18.35 9.57499 18.275C5.53333 17.1583 2.575 13.3417 2.575 9.26666V5.60831C2.575 4.92498 3.09168 4.14998 3.73334 3.89165L8.37499 1.99167C9.41666 1.56667 10.5917 1.56667 11.6333 1.99167L16.275 3.89165C16.9083 4.14998 17.4333 4.92498 17.4333 5.60831L17.425 9.26666Z" stroke="var(--stroke-0, #CED2E6)" stroke-width="1.5" stroke-linecap="round" stroke-linejoin="round"/>
<g id="Group">
<path id="Vector_2" d="M10 10.4167C10.9205 10.4167 11.6667 9.67047 11.6667 8.75C11.6667 7.82953 10.9205 7.08333 10 7.08333C9.07953 7.08333 8.33333 7.82953 8.33333 8.75C8.33333 9.67047 9.07953 10.4167 10 10.4167Z" stroke="var(--stroke-0, #CED2E6)" stroke-width="1.5" stroke-miterlimit="10" stroke-linecap="round" stroke-linejoin="round"/>
<path id="Vector_3" d="M10 10.4167V12.9167" stroke="var(--stroke-0, #CED2E6)" stroke-width="1.5" stroke-miterlimit="10" stroke-linecap="round" stroke-linejoin="round"/>
</g>
<g id="Vector_4" opacity="0">
</g>
</g>
</svg>
