<svg preserveAspectRatio="none" width="100%" height="100%" overflow="visible" style="display: block;" viewBox="0 0 21.5 21" fill="none" xmlns="http://www.w3.org/2000/svg">
<g id="Group">
<path id="Vector" d="M0.750001 10.25C0.750001 6.479 0.750001 4.593 1.922 3.422C3.094 2.251 4.979 2.25 8.75 2.25H12.75C16.521 2.25 18.407 2.25 19.578 3.422C20.749 4.594 20.75 6.479 20.75 10.25V12.25C20.75 16.021 20.75 17.907 19.578 19.078C18.406 20.249 16.521 20.25 12.75 20.25H8.75C4.979 20.25 3.093 20.25 1.922 19.078C0.751001 17.906 0.750001 16.021 0.750001 12.25V10.25Z" stroke="var(--stroke-0, #F5B230)" stroke-width="1.5"/>
<path id="Vector_2" d="M5.75 2.25V0.75M15.75 2.25V0.75M1.25 7.25H20.25" stroke="var(--stroke-0, #F5B230)" stroke-width="1.5" stroke-linecap="round"/>
<path id="Vector_3" d="M16.75 15.25C16.75 15.5152 16.6446 15.7696 16.4571 15.9571C16.2696 16.1446 16.0152 16.25 15.75 16.25C15.4848 16.25 15.2304 16.1446 15.0429 15.9571C14.8554 15.7696 14.75 15.5152 14.75 15.25C14.75 14.9848 14.8554 14.7304 15.0429 14.5429C15.2304 14.3554 15.4848 14.25 15.75 14.25C16.0152 14.25 16.2696 14.3554 16.4571 14.5429C16.6446 14.7304 16.75 14.9848 16.75 15.25ZM16.75 11.25C16.75 11.5152 16.6446 11.7696 16.4571 11.9571C16.2696 12.1446 16.0152 12.25 15.75 12.25C15.4848 12.25 15.2304 12.1446 15.0429 11.9571C14.8554 11.7696 14.75 11.5152 14.75 11.25C14.75 10.9848 14.8554 10.7304 15.0429 10.5429C15.2304 10.3554 15.4848 10.25 15.75 10.25C16.0152 10.25 16.2696 10.3554 16.4571 10.5429C16.6446 10.7304 16.75 10.9848 16.75 11.25ZM11.75 15.25C11.75 15.5152 11.6446 15.7696 11.4571 15.9571C11.2696 16.1446 11.0152 16.25 10.75 16.25C10.4848 16.25 10.2304 16.1446 10.0429 15.9571C9.85536 15.7696 9.75 15.5152 9.75 15.25C9.75 14.9848 9.85536 14.7304 10.0429 14.5429C10.2304 14.3554 10.4848 14.25 10.75 14.25C11.0152 14.25 11.2696 14.3554 11.4571 14.5429C11.6446 14.7304 11.75 14.9848 11.75 15.25ZM11.75 11.25C11.75 11.5152 11.6446 11.7696 11.4571 11.9571C11.2696 12.1446 11.0152 12.25 10.75 12.25C10.4848 12.25 10.2304 12.1446 10.0429 11.9571C9.85536 11.7696 9.75 11.5152 9.75 11.25C9.75 10.9848 9.85536 10.7304 10.0429 10.5429C10.2304 10.3554 10.4848 10.25 10.75 10.25C11.0152 10.25 11.2696 10.3554 11.4571 10.5429C11.6446 10.7304 11.75 10.9848 11.75 11.25ZM6.75 15.25C6.75 15.5152 6.64464 15.7696 6.45711 15.9571C6.26957 16.1446 6.01522 16.25 5.75 16.25C5.48478 16.25 5.23043 16.1446 5.04289 15.9571C4.85536 15.7696 4.75 15.5152 4.75 15.25C4.75 14.9848 4.85536 14.7304 5.04289 14.5429C5.23043 14.3554 5.48478 14.25 5.75 14.25C6.01522 14.25 6.26957 14.3554 6.45711 14.5429C6.64464 14.7304 6.75 14.9848 6.75 15.25ZM6.75 11.25C6.75 11.5152 6.64464 11.7696 6.45711 11.9571C6.26957 12.1446 6.01522 12.25 5.75 12.25C5.48478 12.25 5.23043 12.1446 5.04289 11.9571C4.85536 11.7696 4.75 11.5152 4.75 11.25C4.75 10.9848 4.85536 10.7304 5.04289 10.5429C5.23043 10.3554 5.48478 10.25 5.75 10.25C6.01522 10.25 6.26957 10.3554 6.45711 10.5429C6.64464 10.7304 6.75 10.9848 6.75 11.25Z" fill="var(--fill-0, #F5B230)"/>
</g>
</svg>
