<svg preserveAspectRatio="none" width="100%" height="100%" overflow="visible" style="display: block;" viewBox="0 0 24 24" fill="none" xmlns="http://www.w3.org/2000/svg">
<g id="Icon">
<path id="Vector" d="M7.20002 12C7.20002 12.6365 6.94716 13.247 6.49707 13.6971C6.04699 14.1471 5.43654 14.4 4.80002 14.4C4.1635 14.4 3.55305 14.1471 3.10296 13.6971C2.65287 13.247 2.40002 12.6365 2.40002 12C2.40002 11.3635 2.65287 10.753 3.10296 10.3029C3.55305 9.85286 4.1635 9.6 4.80002 9.6C5.43654 9.6 6.04699 9.85286 6.49707 10.3029C6.94716 10.753 7.20002 11.3635 7.20002 12ZM14.4 12C14.4 12.6365 14.1472 13.247 13.6971 13.6971C13.247 14.1471 12.6365 14.4 12 14.4C11.3635 14.4 10.753 14.1471 10.303 13.6971C9.85287 13.247 9.60002 12.6365 9.60002 12C9.60002 11.3635 9.85287 10.753 10.303 10.3029C10.753 9.85286 11.3635 9.6 12 9.6C12.6365 9.6 13.247 9.85286 13.6971 10.3029C14.1472 10.753 14.4 11.3635 14.4 12V12ZM19.2 14.4C19.8365 14.4 20.447 14.1471 20.8971 13.6971C21.3472 13.247 21.6 12.6365 21.6 12C21.6 11.3635 21.3472 10.753 20.8971 10.3029C20.447 9.85286 19.8365 9.6 19.2 9.6C18.5635 9.6 17.953 9.85286 17.503 10.3029C17.0529 10.753 16.8 11.3635 16.8 12C16.8 12.6365 17.0529 13.247 17.503 13.6971C17.953 14.1471 18.5635 14.4 19.2 14.4Z" fill="var(--fill-0, white)"/>
</g>
</svg>
