<svg preserveAspectRatio="none" width="100%" height="100%" overflow="visible" style="display: block;" viewBox="0 0 14.4997 14.4997" fill="none" xmlns="http://www.w3.org/2000/svg">
<path id="Star 24" d="M5.13189 1.72886C5.60305 -0.576284 8.89667 -0.576287 9.36782 1.72886L9.65937 3.15527C9.8328 4.0038 10.4959 4.66691 11.3444 4.84035L12.7709 5.13189C15.076 5.60305 15.076 8.89667 12.7709 9.36782L11.3444 9.65937C10.4959 9.8328 9.8328 10.4959 9.65937 11.3444L9.36782 12.7709C8.89667 15.076 5.60305 15.076 5.13189 12.7709L4.84035 11.3444C4.66691 10.4959 4.0038 9.8328 3.15528 9.65937L1.72886 9.36782C-0.576284 8.89667 -0.576287 5.60305 1.72886 5.13189L3.15527 4.84035C4.0038 4.66691 4.66691 4.0038 4.84035 3.15528L5.13189 1.72886Z" fill="var(--fill-0, #F5B230)"/>
</svg>
