<svg preserveAspectRatio="none" width="100%" height="100%" overflow="visible" style="display: block;" viewBox="0 0 12.987 12.987" fill="none" xmlns="http://www.w3.org/2000/svg">
<path id="Star 22" d="M4.37555 1.72886C4.8467 -0.576286 8.14033 -0.576286 8.61148 1.72886L8.77467 2.52728C8.9481 3.37581 9.61121 4.03892 10.4597 4.21235L11.2582 4.37555C13.5633 4.8467 13.5633 8.14032 11.2582 8.61147L10.4597 8.77467C9.61121 8.9481 8.9481 9.61121 8.77467 10.4597L8.61148 11.2582C8.14033 13.5633 4.8467 13.5633 4.37555 11.2582L4.21236 10.4597C4.03893 9.61121 3.37581 8.9481 2.52729 8.77467L1.72886 8.61147C-0.576285 8.14032 -0.576285 4.8467 1.72886 4.37555L2.52729 4.21235C3.37581 4.03892 4.03893 3.37581 4.21236 2.52728L4.37555 1.72886Z" fill="var(--fill-0, #F5B230)"/>
</svg>
