<svg preserveAspectRatio="none" width="100%" height="100%" overflow="visible" style="display: block;" viewBox="0 0 20 20" fill="none" xmlns="http://www.w3.org/2000/svg">
<g id="receipt-alt 1">
<path id="Vector" d="M8.33333 6.66637H13.3333C13.5543 6.66637 13.7663 6.57857 13.9226 6.42229C14.0789 6.26601 14.1667 6.05405 14.1667 5.83304C14.1667 5.61202 14.0789 5.40006 13.9226 5.24378C13.7663 5.0875 13.5543 4.9997 13.3333 4.9997H8.33333C8.11232 4.9997 7.90036 5.0875 7.74408 5.24378C7.5878 5.40006 7.5 5.61202 7.5 5.83304C7.5 6.05405 7.5878 6.26601 7.74408 6.42229C7.90036 6.57857 8.11232 6.66637 8.33333 6.66637V6.66637ZM6.66667 9.99971H13.3333C13.5543 9.99971 13.7663 9.91191 13.9226 9.75563C14.0789 9.59935 14.1667 9.38739 14.1667 9.16637C14.1667 8.94536 14.0789 8.7334 13.9226 8.57712C13.7663 8.42084 13.5543 8.33304 13.3333 8.33304H6.66667C6.44565 8.33304 6.23369 8.42084 6.07741 8.57712C5.92113 8.7334 5.83333 8.94536 5.83333 9.16637C5.83333 9.38739 5.92113 9.59935 6.07741 9.75563C6.23369 9.91191 6.44565 9.99971 6.66667 9.99971ZM6.66667 13.333H13.3333C13.5543 13.333 13.7663 13.2452 13.9226 13.089C14.0789 12.9327 14.1667 12.7207 14.1667 12.4997C14.1667 12.2787 14.0789 12.0667 13.9226 11.9104C13.7663 11.7542 13.5543 11.6664 13.3333 11.6664H6.66667C6.44565 11.6664 6.23369 11.7542 6.07741 11.9104C5.92113 12.0667 5.83333 12.2787 5.83333 12.4997C5.83333 12.7207 5.92113 12.9327 6.07741 13.089C6.23369 13.2452 6.44565 13.333 6.66667 13.333ZM16.6667 1.66637H3.33333C3.11232 1.66637 2.90036 1.75417 2.74408 1.91045C2.5878 2.06673 2.5 2.27869 2.5 2.4997V17.4997C2.5 17.6545 2.5431 17.8062 2.62446 17.9378C2.70582 18.0695 2.82223 18.1759 2.96066 18.2451C3.09908 18.3143 3.25404 18.3436 3.40817 18.3297C3.56231 18.3158 3.70953 18.2592 3.83333 18.1664L5.55833 16.8747L7.275 18.1664C7.41925 18.2746 7.59469 18.333 7.775 18.333C7.95531 18.333 8.13075 18.2746 8.275 18.1664L10 16.8747L11.725 18.1664C11.8692 18.2746 12.0447 18.333 12.225 18.333C12.4053 18.333 12.5808 18.2746 12.725 18.1664L14.4417 16.8747L16.1667 18.1664C16.2911 18.2591 16.4389 18.3152 16.5935 18.3285C16.7481 18.3417 16.9033 18.3116 17.0417 18.2414C17.1791 18.1721 17.2947 18.0662 17.3756 17.9353C17.4565 17.8044 17.4995 17.6536 17.5 17.4997V2.4997C17.5 2.27869 17.4122 2.06673 17.2559 1.91045C17.0996 1.75417 16.8877 1.66637 16.6667 1.66637V1.66637ZM15.8333 15.833L14.9417 15.1664C14.7974 15.0582 14.622 14.9997 14.4417 14.9997C14.2614 14.9997 14.0859 15.0582 13.9417 15.1664L12.225 16.458L10.5 15.1664C10.3558 15.0582 10.1803 14.9997 10 14.9997C9.81969 14.9997 9.64425 15.0582 9.5 15.1664L7.775 16.458L6.05833 15.1664C5.91409 15.0582 5.73864 14.9997 5.55833 14.9997C5.37802 14.9997 5.20258 15.0582 5.05833 15.1664L4.16667 15.833V3.33304H15.8333V15.833Z" fill="var(--fill-0, #F5B144)"/>
</g>
</svg>
