<svg preserveAspectRatio="none" width="100%" height="100%" overflow="visible" style="display: block;" viewBox="0 0 9.84571 9.84571" fill="none" xmlns="http://www.w3.org/2000/svg">
<path id="Star 25" opacity="0.46" d="M3.03807 1.53852C3.45735 -0.512839 6.38836 -0.512839 6.80764 1.53852V1.53852C6.96198 2.29362 7.55209 2.88373 8.30719 3.03807V3.03807C10.3586 3.45735 10.3586 6.38836 8.30719 6.80764V6.80764C7.55209 6.96198 6.96198 7.55209 6.80764 8.30719V8.30719C6.38836 10.3586 3.45735 10.3586 3.03807 8.30719V8.30719C2.88373 7.55209 2.29362 6.96198 1.53852 6.80764V6.80764C-0.512839 6.38836 -0.512839 3.45735 1.53852 3.03807V3.03807C2.29362 2.88373 2.88373 2.29362 3.03807 1.53852V1.53852Z" fill="var(--fill-0, #F5B230)"/>
</svg>
