<svg preserveAspectRatio="none" width="100%" height="100%" overflow="visible" style="display: block;" viewBox="0 0 13.993 11.1905" fill="none" xmlns="http://www.w3.org/2000/svg">
<path id="Vector" d="M13.9346 5.3155C12.5218 2.03528 9.86409 0 6.99652 0C4.12894 0 1.47119 2.03528 0.0583899 5.3155C0.0198782 5.40374 0 5.49898 0 5.59526C0 5.69154 0.0198782 5.78678 0.0583899 5.87503C1.47119 9.15525 4.12894 11.1905 6.99652 11.1905C9.86409 11.1905 12.5218 9.15525 13.9346 5.87503C13.9732 5.78678 13.993 5.69154 13.993 5.59526C13.993 5.49898 13.9732 5.40374 13.9346 5.3155ZM6.99652 9.79171C4.77939 9.79171 2.68117 8.19007 1.47119 5.59526C2.68117 3.00046 4.77939 1.39882 6.99652 1.39882C9.21364 1.39882 11.3119 3.00046 12.5218 5.59526C11.3119 8.19007 9.21364 9.79171 6.99652 9.79171ZM6.99652 2.79763C6.4432 2.79763 5.9023 2.96171 5.44224 3.26912C4.98217 3.57653 4.62359 4.01345 4.41184 4.52466C4.20009 5.03586 4.14469 5.59837 4.25264 6.14105C4.36059 6.68374 4.62704 7.18223 5.01829 7.57349C5.40955 7.96474 5.90804 8.23119 6.45072 8.33914C6.99341 8.44709 7.55592 8.39168 8.06712 8.17994C8.57832 7.96819 9.01525 7.60961 9.32266 7.14954C9.63007 6.68947 9.79415 6.14858 9.79415 5.59526C9.79415 4.85328 9.4994 4.1417 8.97474 3.61704C8.45008 3.09238 7.73849 2.79763 6.99652 2.79763ZM6.99652 6.99408C6.71986 6.99408 6.44941 6.91204 6.21938 6.75834C5.98934 6.60463 5.81005 6.38617 5.70418 6.13057C5.59831 5.87497 5.5706 5.59371 5.62458 5.32237C5.67855 5.05102 5.81178 4.80178 6.0074 4.60615C6.20303 4.41052 6.45228 4.2773 6.72362 4.22332C6.99496 4.16935 7.27622 4.19705 7.53182 4.30293C7.78742 4.4088 8.00588 4.58809 8.15959 4.81812C8.31329 5.04816 8.39533 5.3186 8.39533 5.59526C8.39533 5.96625 8.24796 6.32205 7.98563 6.58437C7.7233 6.8467 7.3675 6.99408 6.99652 6.99408Z" fill="var(--fill-0, #E5E5E5)"/>
</svg>
