<svg preserveAspectRatio="none" width="100%" height="100%" overflow="visible" style="display: block;" viewBox="0 0 20 20" fill="none" xmlns="http://www.w3.org/2000/svg">
<g id="star 4">
<path id="Vector" d="M18.3301 8.05998C18.2774 7.90755 18.1817 7.77367 18.0545 7.67456C17.9273 7.57546 17.7741 7.51539 17.6134 7.50165L12.8717 6.80998L10.7467 2.50165C10.6785 2.36075 10.5719 2.24193 10.4393 2.15879C10.3066 2.07565 10.1533 2.03155 9.99672 2.03155C9.84017 2.03155 9.68679 2.07565 9.55414 2.15879C9.4215 2.24193 9.31496 2.36075 9.24672 2.50165L7.12172 6.80165L2.38005 7.50165C2.22582 7.52357 2.08082 7.58828 1.96151 7.68844C1.8422 7.78861 1.75335 7.92021 1.70505 8.06831C1.66084 8.21304 1.65687 8.36708 1.69358 8.51389C1.73028 8.6607 1.80627 8.79475 1.91339 8.90165L5.35505 12.235L4.52172 16.9683C4.49197 17.1245 4.50755 17.286 4.56661 17.4337C4.62568 17.5814 4.72576 17.709 4.85505 17.8016C4.98107 17.8917 5.1297 17.9449 5.28426 17.9552C5.43882 17.9655 5.59319 17.9325 5.73005 17.86L9.99672 15.635L14.2467 17.8683C14.3637 17.9343 14.4958 17.9688 14.6301 17.9683C14.8066 17.9689 14.9787 17.9135 15.1217 17.81C15.251 17.7174 15.3511 17.5897 15.4102 17.442C15.4692 17.2944 15.4848 17.1329 15.4551 16.9766L14.6217 12.2433L18.0634 8.90998C18.1837 8.80804 18.2726 8.67406 18.3198 8.5236C18.367 8.37314 18.3706 8.21237 18.3301 8.05998ZM13.2051 11.3933C13.1073 11.4878 13.0342 11.6048 12.9921 11.7341C12.95 11.8634 12.9401 12.001 12.9634 12.135L13.5634 15.6266L10.4301 13.96C10.3095 13.8958 10.175 13.8622 10.0384 13.8622C9.90179 13.8622 9.76729 13.8958 9.64672 13.96L6.51339 15.6266L7.11339 12.135C7.13667 12.001 7.12681 11.8634 7.08469 11.7341C7.04257 11.6048 6.96945 11.4878 6.87172 11.3933L4.37172 8.89331L7.88005 8.38498C8.01505 8.3662 8.14338 8.3146 8.2538 8.23469C8.36422 8.15478 8.45335 8.04901 8.51339 7.92665L9.99672 4.75165L11.5634 7.93498C11.6234 8.05734 11.7126 8.16311 11.823 8.24302C11.9334 8.32293 12.0617 8.37453 12.1967 8.39331L15.7051 8.90165L13.2051 11.3933Z" fill="var(--fill-0, white)"/>
</g>
</svg>
