<svg preserveAspectRatio="none" width="100%" height="100%" overflow="visible" style="display: block;" viewBox="0 0 16.6658 16.6658" fill="none" xmlns="http://www.w3.org/2000/svg">
<g id="star">
<path id="Vector" d="M9.53417 2.4373L10.7563 4.88162C10.923 5.22188 11.3674 5.54825 11.7424 5.61075L13.9576 5.97878C15.3741 6.21488 15.7075 7.24261 14.6867 8.25644L12.9645 9.97858C12.6729 10.2702 12.5132 10.8327 12.6035 11.2355L13.0965 13.3673C13.4854 15.0547 12.5896 15.7074 11.0966 14.8256L9.02031 13.5964C8.64532 13.3742 8.0273 13.3742 7.64538 13.5964L5.56909 14.8256C4.08306 15.7074 3.18033 15.0478 3.5692 13.3673L4.06223 11.2355C4.1525 10.8327 3.99279 10.2702 3.70114 9.97858L1.979 8.25644C0.965165 7.24261 1.29154 6.21488 2.70813 5.97878L4.92329 5.61075C5.29133 5.54825 5.73575 5.22188 5.90241 4.88162L7.12457 2.4373C7.7912 1.11098 8.87448 1.11098 9.53417 2.4373Z" fill="var(--fill-0, #20232C)"/>
<g id="Vector_2" opacity="0">
</g>
</g>
</svg>
