<svg preserveAspectRatio="none" width="100%" height="100%" overflow="visible" style="display: block;" viewBox="0 0 27.1015 27.1015" fill="none" xmlns="http://www.w3.org/2000/svg">
<g id="user-circle 1">
<path id="Vector" d="M13.5526 2.258C11.3624 2.26217 9.22075 2.90315 7.3884 4.10287C5.55605 5.3026 4.11213 7.00929 3.23251 9.01506C2.35289 11.0208 2.07554 13.2391 2.43424 15.3997C2.79294 17.5603 3.77221 19.57 5.25277 21.1839V21.1839C6.31021 22.3301 7.5936 23.2449 9.02207 23.8706C10.4505 24.4963 11.9931 24.8193 13.5526 24.8193C15.1121 24.8193 16.6547 24.4963 18.0832 23.8706C19.5116 23.2449 20.795 22.3301 21.8525 21.1839V21.1839C23.333 19.57 24.3123 17.5603 24.671 15.3997C25.0297 13.2391 24.7523 11.0208 23.8727 9.01506C22.9931 7.00929 21.5492 5.3026 19.7168 4.10287C17.8845 2.90315 15.7428 2.26217 13.5526 2.258V2.258ZM13.5526 22.5842C11.2134 22.5806 8.96671 21.6698 7.28538 20.0434C7.79584 18.8007 8.66421 17.7378 9.78014 16.9898C10.8961 16.2418 12.2092 15.8424 13.5526 15.8424C14.896 15.8424 16.2092 16.2418 17.3251 16.9898C18.441 17.7378 19.3094 18.8007 19.8198 20.0434C18.1385 21.6698 15.8919 22.5806 13.5526 22.5842ZM11.2942 11.2919C11.2942 10.8452 11.4266 10.4085 11.6748 10.0371C11.9229 9.66571 12.2757 9.37624 12.6883 9.2053C13.101 9.03437 13.5551 8.98964 13.9932 9.07678C14.4313 9.16393 14.8337 9.37903 15.1496 9.69488C15.4654 10.0107 15.6805 10.4131 15.7677 10.8512C15.8548 11.2893 15.8101 11.7434 15.6392 12.1561C15.4682 12.5688 15.1787 12.9215 14.8073 13.1697C14.4359 13.4179 13.9993 13.5503 13.5526 13.5503C12.9536 13.5503 12.3792 13.3124 11.9556 12.8888C11.5321 12.4653 11.2942 11.8908 11.2942 11.2919ZM21.3556 18.0672C20.3467 16.3415 18.7938 14.9991 16.9403 14.2504C17.5153 13.5985 17.8899 12.7945 18.0193 11.9349C18.1486 11.0753 18.0272 10.1966 17.6695 9.40434C17.3119 8.61205 16.7332 7.9398 16.0029 7.46824C15.2727 6.99668 14.4219 6.74585 13.5526 6.74585C12.6833 6.74585 11.8325 6.99668 11.1023 7.46824C10.372 7.9398 9.79337 8.61205 9.43572 9.40434C9.07807 10.1966 8.95663 11.0753 9.08597 11.9349C9.21532 12.7945 9.58995 13.5985 10.1649 14.2504C8.3114 14.9991 6.75856 16.3415 5.74963 18.0672C4.94555 16.6976 4.52071 15.1385 4.51877 13.5503C4.51877 11.1544 5.47055 8.85659 7.16472 7.16242C8.85889 5.46824 11.1567 4.51647 13.5526 4.51647C15.9485 4.51647 18.2463 5.46824 19.9405 7.16242C21.6347 8.85659 22.5865 11.1544 22.5865 13.5503C22.5845 15.1385 22.1597 16.6976 21.3556 18.0672V18.0672Z" fill="var(--fill-0, #868E96)"/>
</g>
</svg>
