<svg preserveAspectRatio="none" width="100%" height="100%" overflow="visible" style="display: block;" viewBox="0 0 20 20" fill="none" xmlns="http://www.w3.org/2000/svg">
<g id="notification">
<path id="Vector" d="M10.0167 2.425C7.25833 2.425 5.01667 4.66667 5.01667 7.425V9.83333C5.01667 10.3417 4.8 11.1167 4.54167 11.55L3.58333 13.1417C2.99167 14.125 3.4 15.2167 4.48333 15.5833C8.075 16.7833 11.95 16.7833 15.5417 15.5833C16.55 15.25 16.9917 14.0583 16.4417 13.1417L15.4833 11.55C15.2333 11.1167 15.0167 10.3417 15.0167 9.83333V7.425C15.0167 4.675 12.7667 2.425 10.0167 2.425Z" stroke="var(--stroke-0, #CED2E6)" stroke-width="1.5" stroke-miterlimit="10" stroke-linecap="round"/>
<path id="Vector_2" d="M11.5583 2.66667C11.3 2.59167 11.0333 2.53333 10.7583 2.5C9.95833 2.4 9.19167 2.45833 8.475 2.66667C8.71667 2.05 9.31667 1.61667 10.0167 1.61667C10.7167 1.61667 11.3167 2.05 11.5583 2.66667Z" stroke="var(--stroke-0, #CED2E6)" stroke-width="1.5" stroke-miterlimit="10" stroke-linecap="round" stroke-linejoin="round"/>
<path id="Vector_3" d="M12.5167 15.8833C12.5167 17.2583 11.3917 18.3833 10.0167 18.3833C9.33333 18.3833 8.7 18.1 8.25 17.65C7.8 17.2 7.51667 16.5667 7.51667 15.8833" stroke="var(--stroke-0, #CED2E6)" stroke-width="1.5" stroke-miterlimit="10"/>
<g id="Vector_4" opacity="0">
</g>
</g>
</svg>
