<svg preserveAspectRatio="none" width="100%" height="100%" overflow="visible" style="display: block;" viewBox="0 0 20 20" fill="none" xmlns="http://www.w3.org/2000/svg">
<g id="star 2">
<path id="Vector" d="M18.3372 8.05998C18.2846 7.90755 18.1888 7.77367 18.0616 7.67456C17.9344 7.57546 17.7812 7.51539 17.6205 7.50165L12.8788 6.80998L10.7538 2.50165C10.6856 2.36075 10.5791 2.24193 10.4464 2.15879C10.3138 2.07565 10.1604 2.03155 10.0038 2.03155C9.8473 2.03155 9.69392 2.07565 9.56127 2.15879C9.42863 2.24193 9.32208 2.36075 9.25384 2.50165L7.12885 6.80165L2.38718 7.50165C2.23295 7.52357 2.08795 7.58828 1.96864 7.68844C1.84932 7.78861 1.76048 7.92021 1.71218 8.06831C1.66797 8.21304 1.664 8.36708 1.7007 8.51389C1.7374 8.6607 1.81339 8.79475 1.92051 8.90165L5.36218 12.235L4.52884 16.9683C4.49909 17.1245 4.51467 17.286 4.57374 17.4337C4.6328 17.5814 4.73289 17.709 4.86218 17.8016C4.98819 17.8917 5.13682 17.9449 5.29138 17.9552C5.44595 17.9655 5.60032 17.9325 5.73718 17.86L10.0038 15.635L14.2538 17.8683C14.3708 17.9343 14.5029 17.9688 14.6372 17.9683C14.8137 17.9689 14.9859 17.9135 15.1288 17.81C15.2581 17.7174 15.3582 17.5897 15.4173 17.442C15.4764 17.2944 15.4919 17.1329 15.4622 16.9766L14.6288 12.2433L18.0705 8.90998C18.1908 8.80804 18.2798 8.67406 18.327 8.5236C18.3742 8.37314 18.3777 8.21237 18.3372 8.05998ZM13.2122 11.3933C13.1144 11.4878 13.0413 11.6048 12.9992 11.7341C12.9571 11.8634 12.9472 12.001 12.9705 12.135L13.5705 15.6266L10.4372 13.96C10.3166 13.8958 10.1821 13.8622 10.0455 13.8622C9.90892 13.8622 9.77441 13.8958 9.65384 13.96L6.52051 15.6266L7.12051 12.135C7.14379 12.001 7.13394 11.8634 7.09182 11.7341C7.04969 11.6048 6.97658 11.4878 6.87884 11.3933L4.37884 8.89331L7.88718 8.38498C8.02218 8.3662 8.15051 8.3146 8.26093 8.23469C8.37135 8.15478 8.46048 8.04901 8.52051 7.92665L10.0038 4.75165L11.5705 7.93498C11.6305 8.05734 11.7197 8.16311 11.8301 8.24302C11.9405 8.32293 12.0688 8.37453 12.2038 8.39331L15.7122 8.90165L13.2122 11.3933Z" fill="var(--fill-0, white)"/>
</g>
</svg>
