<svg preserveAspectRatio="none" width="100%" height="100%" overflow="visible" style="display: block;" viewBox="0 0 24 24" fill="none" xmlns="http://www.w3.org/2000/svg">
<g id="Icons">
<path id="Vector" d="M3 8H4V16H3C2.46957 16 1.96086 15.7893 1.58579 15.4142C1.21071 15.0391 1 14.5304 1 14V10C1 9.46957 1.21071 8.96086 1.58579 8.58579C1.96086 8.21071 2.46957 8 3 8Z" fill="var(--fill-0, #0D121C)"/>
<path id="Vector_2" d="M14.8 22.6L6 16V8L14.8 1.4C15.0971 1.17715 15.4505 1.04144 15.8204 1.00808C16.1903 0.974725 16.5622 1.04504 16.8944 1.21115C17.2266 1.37725 17.506 1.63259 17.7013 1.94854C17.8966 2.26449 18 2.62858 18 3V21C18 21.3714 17.8966 21.7355 17.7013 22.0515C17.506 22.3674 17.2266 22.6227 16.8944 22.7889C16.5622 22.955 16.1903 23.0253 15.8204 22.9919C15.4505 22.9586 15.0971 22.8229 14.8 22.6Z" fill="var(--fill-0, #0D121C)"/>
<path id="Vector_3" d="M20 9C20.7956 9 21.5587 9.31607 22.1213 9.87868C22.6839 10.4413 23 11.2044 23 12C23 12.7956 22.6839 13.5587 22.1213 14.1213C21.5587 14.6839 20.7956 15 20 15V9Z" fill="var(--fill-0, #0D121C)"/>
</g>
</svg>
