<svg preserveAspectRatio="none" width="100%" height="100%" overflow="visible" style="display: block;" viewBox="0 0 22 22" fill="none" xmlns="http://www.w3.org/2000/svg">
<g id="discount-shape">
<path id="Vector" opacity="0" d="M22 0H0V22H22V0Z" fill="var(--fill-0, #0D121C)"/>
<path id="Vector_2" d="M19.7358 9.96417L18.3425 8.57083C18.1042 8.3325 17.9117 7.865 17.9117 7.535V5.555C17.9117 4.74833 17.2517 4.08833 16.445 4.08833H14.4742C14.1442 4.08833 13.6767 3.89583 13.4383 3.6575L12.045 2.26417C11.4767 1.69583 10.5417 1.69583 9.97333 2.26417L8.56167 3.6575C8.3325 3.89583 7.865 4.08833 7.52583 4.08833H5.555C4.74833 4.08833 4.08833 4.74833 4.08833 5.555V7.52583C4.08833 7.85583 3.89583 8.32333 3.6575 8.56167L2.26417 9.955C1.69583 10.5233 1.69583 11.4583 2.26417 12.0267L3.6575 13.42C3.89583 13.6583 4.08833 14.1258 4.08833 14.4558V16.4267C4.08833 17.2333 4.74833 17.8933 5.555 17.8933H7.52583C7.85583 17.8933 8.32333 18.0858 8.56167 18.3242L9.955 19.7175C10.5233 20.2858 11.4583 20.2858 12.0267 19.7175L13.42 18.3242C13.6583 18.0858 14.1258 17.8933 14.4558 17.8933H16.4267C17.2333 17.8933 17.8933 17.2333 17.8933 16.4267V14.4558C17.8933 14.1258 18.0858 13.6583 18.3242 13.42L19.7175 12.0267C20.3133 11.4675 20.3133 10.5325 19.7358 9.96417ZM7.33333 8.25C7.33333 7.74583 7.74583 7.33333 8.25 7.33333C8.75417 7.33333 9.16667 7.74583 9.16667 8.25C9.16667 8.75417 8.76333 9.16667 8.25 9.16667C7.74583 9.16667 7.33333 8.75417 7.33333 8.25ZM8.73583 14.2358C8.59833 14.3733 8.42417 14.4375 8.25 14.4375C8.07583 14.4375 7.90167 14.3733 7.76417 14.2358C7.49833 13.97 7.49833 13.53 7.76417 13.2642L13.2642 7.76417C13.53 7.49833 13.97 7.49833 14.2358 7.76417C14.5017 8.03 14.5017 8.47 14.2358 8.73583L8.73583 14.2358ZM13.75 14.6667C13.2367 14.6667 12.8242 14.2542 12.8242 13.75C12.8242 13.2458 13.2367 12.8333 13.7408 12.8333C14.245 12.8333 14.6575 13.2458 14.6575 13.75C14.6575 14.2542 14.2542 14.6667 13.75 14.6667Z" fill="var(--fill-0, #0D121C)"/>
</g>
</svg>
