<svg preserveAspectRatio="none" width="100%" height="100%" overflow="visible" style="display: block;" viewBox="0 0 100 100" fill="none" xmlns="http://www.w3.org/2000/svg">
<g id="Group 1923243572">
<g id="Ellipse 61" opacity="0.15" filter="url(#filter0_d_17_3873)">
<circle cx="50" cy="40" r="40" fill="var(--fill-0, #F5B144)"/>
<circle cx="50" cy="40" r="39.5" stroke="var(--stroke-0, white)"/>
</g>
<path id="Vector" d="M53.646 40.7155C54.6264 39.9442 55.342 38.8864 55.6933 37.6894C56.0445 36.4925 56.014 35.2158 55.6058 34.037C55.1977 32.8582 54.4323 31.8359 53.4161 31.1124C52.3999 30.3888 51.1835 30 49.936 30C48.6886 30 47.4721 30.3888 46.456 31.1124C45.4398 31.8359 44.6744 32.8582 44.2662 34.037C43.8581 35.2158 43.8275 36.4925 44.1788 37.6894C44.53 38.8864 45.2456 39.9442 46.226 40.7155C44.5461 41.3885 43.0803 42.5048 41.9849 43.9454C40.8895 45.386 40.2056 47.0968 40.006 48.8955C39.9916 49.0268 40.0031 49.1597 40.0401 49.2866C40.077 49.4134 40.1385 49.5317 40.2211 49.6348C40.3881 49.843 40.6308 49.9763 40.896 50.0055C41.1612 50.0347 41.4272 49.9573 41.6354 49.7904C41.8435 49.6235 41.9769 49.3807 42.006 49.1155C42.2256 47.1607 43.1577 45.3553 44.6243 44.0443C46.0908 42.7333 47.9889 42.0085 49.956 42.0085C51.9231 42.0085 53.8213 42.7333 55.2878 44.0443C56.7543 45.3553 57.6864 47.1607 57.906 49.1155C57.9332 49.3612 58.0505 49.5882 58.2351 49.7525C58.4198 49.9169 58.6588 50.007 58.906 50.0055H59.016C59.2782 49.9753 59.5178 49.8428 59.6826 49.6367C59.8474 49.4307 59.9241 49.1679 59.896 48.9055C59.6955 47.1017 59.0079 45.3865 57.9069 43.9437C56.8059 42.5009 55.3329 41.385 53.646 40.7155V40.7155ZM49.936 40.0055C49.1449 40.0055 48.3715 39.7709 47.7138 39.3314C47.056 38.8918 46.5433 38.2671 46.2405 37.5362C45.9378 36.8053 45.8585 36.0011 46.0129 35.2251C46.1672 34.4492 46.5482 33.7365 47.1076 33.1771C47.667 32.6177 48.3797 32.2367 49.1557 32.0824C49.9316 31.928 50.7359 32.0072 51.4668 32.31C52.1977 32.6127 52.8224 33.1254 53.2619 33.7832C53.7014 34.441 53.936 35.2144 53.936 36.0055C53.936 37.0664 53.5146 38.0838 52.7645 38.8339C52.0143 39.5841 50.9969 40.0055 49.936 40.0055Z" fill="var(--fill-0, #F5B144)"/>
</g>
<defs>
<filter id="filter0_d_17_3873" x="0" y="0" width="100" height="100" filterUnits="userSpaceOnUse" color-interpolation-filters="sRGB">
<feFlood flood-opacity="0" result="BackgroundImageFix"/>
<feColorMatrix in="SourceAlpha" type="matrix" values="0 0 0 0 0 0 0 0 0 0 0 0 0 0 0 0 0 0 127 0" result="hardAlpha"/>
<feMorphology radius="10" operator="erode" in="SourceAlpha" result="effect1_dropShadow_17_3873"/>
<feOffset dy="10"/>
<feGaussianBlur stdDeviation="10"/>
<feColorMatrix type="matrix" values="0 0 0 0 0 0 0 0 0 0 0 0 0 0 0 0 0 0 0.2 0"/>
<feBlend mode="normal" in2="BackgroundImageFix" result="effect1_dropShadow_17_3873"/>
<feBlend mode="normal" in="SourceGraphic" in2="effect1_dropShadow_17_3873" result="shape"/>
</filter>
</defs>
</svg>
