<svg preserveAspectRatio="none" width="100%" height="100%" overflow="visible" style="display: block;" viewBox="0 0 17.8866 17.8866" fill="none" xmlns="http://www.w3.org/2000/svg">
<g id="chart 1">
<path id="Vector" d="M8.94291 4.47239C8.74526 4.47239 8.55569 4.55091 8.41593 4.69067C8.27616 4.83044 8.19764 5.02 8.19764 5.21766V12.6704C8.19764 12.8681 8.27616 13.0576 8.41593 13.1974C8.55569 13.3372 8.74526 13.4157 8.94291 13.4157C9.14057 13.4157 9.33014 13.3372 9.4699 13.1974C9.60967 13.0576 9.68819 12.8681 9.68819 12.6704V5.21766C9.68819 5.02 9.60967 4.83044 9.4699 4.69067C9.33014 4.55091 9.14057 4.47239 8.94291 4.47239ZM5.21654 8.94403C5.01888 8.94403 4.82932 9.02255 4.68955 9.16232C4.54979 9.30209 4.47127 9.49165 4.47127 9.68931V12.6704C4.47127 12.8681 4.54979 13.0576 4.68955 13.1974C4.82932 13.3372 5.01888 13.4157 5.21654 13.4157C5.4142 13.4157 5.60376 13.3372 5.74353 13.1974C5.8833 13.0576 5.96182 12.8681 5.96182 12.6704V9.68931C5.96182 9.49165 5.8833 9.30209 5.74353 9.16232C5.60376 9.02255 5.4142 8.94403 5.21654 8.94403ZM12.6693 7.45349C12.4716 7.45349 12.2821 7.53201 12.1423 7.67177C12.0025 7.81154 11.924 8.0011 11.924 8.19876V12.6704C11.924 12.8681 12.0025 13.0576 12.1423 13.1974C12.2821 13.3372 12.4716 13.4157 12.6693 13.4157C12.8669 13.4157 13.0565 13.3372 13.1963 13.1974C13.336 13.0576 13.4146 12.8681 13.4146 12.6704V8.19876C13.4146 8.0011 13.336 7.81154 13.1963 7.67177C13.0565 7.53201 12.8669 7.45349 12.6693 7.45349ZM14.1598 1.49129H3.72599C3.13302 1.49129 2.56432 1.72685 2.14503 2.14615C1.72573 2.56544 1.49017 3.13414 1.49017 3.72711V14.161C1.49017 14.7539 1.72573 15.3226 2.14503 15.7419C2.56432 16.1612 3.13302 16.3968 3.72599 16.3968H14.1598C14.7528 16.3968 15.3215 16.1612 15.7408 15.7419C16.1601 15.3226 16.3957 14.7539 16.3957 14.161V3.72711C16.3957 3.13414 16.1601 2.56544 15.7408 2.14615C15.3215 1.72685 14.7528 1.49129 14.1598 1.49129ZM14.9051 14.161C14.9051 14.3586 14.8266 14.5482 14.6868 14.6879C14.5471 14.8277 14.3575 14.9062 14.1598 14.9062H3.72599C3.52833 14.9062 3.33877 14.8277 3.199 14.6879C3.05924 14.5482 2.98072 14.3586 2.98072 14.161V3.72711C2.98072 3.52945 3.05924 3.33989 3.199 3.20012C3.33877 3.06036 3.52833 2.98184 3.72599 2.98184H14.1598C14.3575 2.98184 14.5471 3.06036 14.6868 3.20012C14.8266 3.33989 14.9051 3.52945 14.9051 3.72711V14.161Z" fill="var(--fill-0, #F5B230)"/>
</g>
</svg>
