<svg preserveAspectRatio="none" width="100%" height="100%" overflow="visible" style="display: block;" viewBox="0 0 24 24" fill="none" xmlns="http://www.w3.org/2000/svg">
<g id="Group">
<g id="a">
</g>
<g id="a_2">
</g>
<path id="Path" d="M13.6 20H10.4" stroke="var(--stroke-0, white)" stroke-width="1.5" stroke-linecap="round" stroke-linejoin="round"/>
<path id="Path_2" fill-rule="evenodd" clip-rule="evenodd" d="M17 10.032V10V10C17 7.239 14.761 5 12 5V5C9.239 5 7 7.239 7 10V10V10.032V12.504C7 12.828 6.817 13.123 6.528 13.268L6.025 13.519C5.397 13.834 5 14.476 5 15.178V15.178C5 16.202 5.83 17.032 6.854 17.032H17.146C18.17 17.032 19 16.202 19 15.178V15.178C19 14.476 18.603 13.834 17.975 13.52L17.472 13.269C17.183 13.123 17 12.828 17 12.504V10.032Z" stroke="var(--stroke-0, white)" stroke-width="1.5" stroke-linecap="round" stroke-linejoin="round"/>
<path id="Path_3" d="M18.951 6.049C18.239 4.799 17.201 3.761 15.951 3.049" stroke="var(--stroke-0, white)" stroke-width="1.5" stroke-linecap="round" stroke-linejoin="round"/>
<path id="Path_4" d="M5.049 6.049C5.761 4.799 6.799 3.761 8.049 3.049" stroke="var(--stroke-0, white)" stroke-width="1.5" stroke-linecap="round" stroke-linejoin="round"/>
</g>
</svg>
