<svg preserveAspectRatio="none" width="100%" height="100%" overflow="visible" style="display: block;" viewBox="0 0 22 22" fill="none" xmlns="http://www.w3.org/2000/svg">
<g id="Group">
<g id="Group_2">
<path id="Path" d="M8.35633 13.0048C5.0985 13.4338 2.75 14.63 2.75 16.0417C2.75 17.8136 6.44325 19.25 11 19.25C15.5568 19.25 19.25 17.8136 19.25 16.0417C19.25 14.63 16.9015 13.4338 13.6437 13.0048" stroke="var(--stroke-0, white)" stroke-width="1.5" stroke-linecap="round" stroke-linejoin="round"/>
<path id="Path_2" fill-rule="evenodd" clip-rule="evenodd" d="M16.5 7.18025C16.5 4.22767 14.0378 1.83333 11 1.83333C7.96217 1.83333 5.5 4.22767 5.5 7.18025C5.5 11.1907 11 15.5833 11 15.5833C11 15.5833 16.5 11.1907 16.5 7.18025Z" stroke="var(--stroke-0, white)" stroke-width="1.5" stroke-linecap="round" stroke-linejoin="round"/>
<path id="Path_3" d="M12.2963 6.03697C13.0123 6.75294 13.0123 7.91374 12.2963 8.6297C11.5804 9.34566 10.4196 9.34566 9.70362 8.6297C8.98766 7.91374 8.98766 6.75294 9.70362 6.03697C10.4196 5.32101 11.5804 5.32101 12.2963 6.03697" stroke="var(--stroke-0, white)" stroke-width="1.5" stroke-linecap="round" stroke-linejoin="round"/>
</g>
<g id="Path_4">
</g>
</g>
</svg>
