<svg width="27" height="22" viewBox="0 0 27 22" fill="none" xmlns="http://www.w3.org/2000/svg">
<path d="M17.133 4.05713H9.83984V17.7544H17.133V4.05713Z" fill="#FF6E1A"/>
<path d="M10.3031 10.9059C10.3031 8.12288 11.5533 5.65446 13.475 4.05726C12.0627 2.89565 10.2799 2.19385 8.33508 2.19385C3.72763 2.19385 0 6.09007 0 10.9059C0 15.7217 3.72763 19.6179 8.33508 19.6179C10.2799 19.6179 12.0627 18.9161 13.475 17.7545C11.5533 16.1815 10.3031 13.6889 10.3031 10.9059Z" fill="#FF0623"/>
<path d="M26.9733 10.9059C26.9733 15.7217 23.2457 19.6179 18.6383 19.6179C16.6934 19.6179 14.9106 18.9161 13.4983 17.7545C15.4431 16.1573 16.6703 13.6889 16.6703 10.9059C16.6703 8.12288 15.42 5.65446 13.4983 4.05726C14.9106 2.89565 16.6934 2.19385 18.6383 2.19385C23.2457 2.19385 26.9733 6.11427 26.9733 10.9059Z" fill="#F8CF67"/>
</svg>
