<svg width="21" height="24" viewBox="0 0 21 24" fill="none" xmlns="http://www.w3.org/2000/svg">
<g clip-path="url(#clip0_9_831)">
<path d="M17.4511 1.86822C16.3314 0.606057 14.3073 0.0649414 11.718 0.0649414H4.20301C3.67325 0.0649414 3.22308 0.445972 3.14014 0.962612L0.0110527 20.589C-0.0511544 20.976 0.251855 21.3266 0.648509 21.3266H5.28796L6.45317 14.0175L6.41705 14.2464C6.49999 13.7298 6.94681 13.3487 7.47591 13.3487H9.68058C14.0117 13.3487 17.403 11.609 18.3936 6.57619C18.423 6.42735 18.4484 6.28248 18.4705 6.14092C18.3454 6.07543 18.3454 6.07543 18.4705 6.14092C18.7655 4.28075 18.4685 3.01462 17.4511 1.86822Z" fill="#2E3E7D"/>
<path d="M8.22842 5.47081C8.35216 5.4126 8.48995 5.38018 8.63443 5.38018H14.5261C15.2237 5.38018 15.8745 5.42517 16.4692 5.51976C16.6398 5.54688 16.805 5.57797 16.9655 5.6137C17.126 5.64876 17.2819 5.68845 17.4331 5.73211C17.5087 5.75394 17.5829 5.77643 17.6558 5.80024C17.9481 5.89682 18.2204 6.00928 18.4705 6.14092C18.7655 4.28009 18.4685 3.01462 17.4511 1.86822C16.3307 0.606057 14.3073 0.0649414 11.718 0.0649414H4.20234C3.67325 0.0649414 3.22308 0.445972 3.14014 0.962612L0.0110532 20.5883C-0.0511539 20.976 0.251855 21.3259 0.64784 21.3259H5.28796L7.70534 6.1654C7.75484 5.85449 7.95684 5.5998 8.22842 5.47081Z" fill="#2E3E7D"/>
<path d="M18.3933 6.57614C17.4027 11.6083 14.0114 13.3487 9.68029 13.3487H7.47494C6.94585 13.3487 6.49903 13.7297 6.41675 14.2464L4.96726 23.3342C4.91308 23.6729 5.17796 23.9798 5.52445 23.9798H9.43547C9.89834 23.9798 10.2923 23.6464 10.3646 23.1946L10.4027 22.9975L11.1398 18.3775L11.1873 18.1222C11.2595 17.6703 11.6535 17.3369 12.1164 17.3369H12.7017C16.4903 17.3369 19.4568 15.8148 20.3237 11.4124C20.6856 9.57279 20.4983 8.03676 19.5411 6.95784C19.2508 6.63105 18.8903 6.36115 18.4702 6.14087C18.4475 6.28309 18.4227 6.4273 18.3933 6.57614Z" fill="#2E9ED5"/>
<path d="M17.4337 5.73205C17.2826 5.68839 17.1267 5.6487 16.9662 5.61364C16.8056 5.57858 16.6398 5.54749 16.4699 5.52037C15.8745 5.42511 15.2244 5.38013 14.5261 5.38013H8.63511C8.48996 5.38013 8.35217 5.41254 8.22909 5.47142C7.95685 5.60041 7.75551 5.85443 7.70601 6.166L6.45385 14.0175L6.41772 14.2464C6.5 13.7297 6.94682 13.3487 7.47592 13.3487H9.68126C14.0123 13.3487 17.4036 11.6089 18.3943 6.57614C18.4237 6.4273 18.4485 6.28309 18.4712 6.14086C18.2204 6.00989 17.9488 5.89677 17.6565 5.80085C17.5836 5.77703 17.5093 5.75388 17.4337 5.73205Z" fill="white"/>
</g>
<defs>
<clipPath id="clip0_9_831">
<rect width="20.5714" height="24" fill="white"/>
</clipPath>
</defs>
</svg>
